<?xml version="1.0" encoding="UTF-8"?> <svg xmlns="http://www.w3.org/2000/svg" width="182" height="57" viewBox="0 0 182 57" fill="none"><g clip-path="url(#clip0_299_14444)"><g clip-path="url(#clip1_299_14444)"><path d="M75.8619 12.228C69.0254 12.228 64.3269 16.6089 64.3269 24.8538V41.6701H72.1137V24.8538C72.1137 21.3164 73.6447 19.7382 75.8355 19.7382C76.313 19.7047 76.7922 19.7692 77.2453 19.928C77.6984 20.0868 78.1164 20.3367 78.4751 20.6633L81.1147 13.1803C79.4412 12.5112 77.6565 12.1876 75.8619 12.228Z" fill="#1A1A1A"></path><path d="M138.104 31.3028C138.104 34.0239 136.863 34.9219 135.2 34.9219C133.537 34.9219 132.27 34.0783 132.27 31.3028V20.2008H144.307V13.2892H132.27V3.87427H124.562V31.3028C124.428 32.7667 124.608 34.2432 125.091 35.6269C125.574 37.0105 126.348 38.267 127.357 39.3068C128.365 40.3466 129.584 41.1439 130.926 41.6418C132.268 42.1398 133.701 42.326 135.121 42.1872C136.541 42.326 137.973 42.1398 139.315 41.6418C140.657 41.1439 141.876 40.3466 142.885 39.3068C143.894 38.267 144.667 37.0105 145.15 35.6269C145.633 34.2432 145.814 32.7667 145.679 31.3028V30.5137H138.104V31.3028Z" fill="#1A1A1A"></path><path d="M166.796 13.2891V28.8809C166.796 32.9353 164.737 34.8129 161.913 34.8129C159.088 34.8129 157.029 33.0442 157.029 28.8809V13.2891H149.269V28.8809C149.269 38.568 155.023 42.2414 160.435 42.2414C161.703 42.2788 162.958 41.9716 164.075 41.3507C165.191 40.7298 166.13 39.817 166.796 38.704V41.4251C166.796 45.4251 165.291 48.1734 161.86 48.1734C159.379 48.1734 158.032 47.4387 157.267 45.7244H149.48C150.774 52.255 155.815 54.9761 161.886 54.9761C168.881 54.9761 174.609 50.4047 174.609 41.2074V13.2891H166.796Z" fill="#1A1A1A"></path><path d="M94.8142 12.2278C87.2386 12.2278 82.1705 17.3434 82.1705 26.2958V41.67H89.8254V26.2958C89.8254 22.1053 91.8051 19.7924 94.7086 19.7924C97.6122 19.7924 99.5919 22.1053 99.5919 26.2958V41.67H107.511V26.2958C107.511 17.289 102.39 12.2278 94.8142 12.2278Z" fill="#1A1A1A"></path><path d="M19.533 13.1259C16.2566 11.8613 12.647 11.8613 9.37059 13.1259C6.60449 14.2156 4.22448 16.1453 2.54541 18.6598C0.866344 21.1742 -0.0326538 24.1549 -0.0326538 27.2076C-0.0326538 30.2602 0.866344 33.2409 2.54541 35.7553C4.22448 38.2698 6.60449 40.1995 9.37059 41.2892C11.1927 41.9782 13.1296 42.2864 15.0685 42.1959C17.0073 42.1053 18.9093 41.6178 20.6635 40.7617C22.4177 39.9057 23.989 38.6982 25.2859 37.2097C26.5828 35.7212 27.5793 33.9815 28.2173 32.0919L20.5097 30.8674C19.5858 32.5122 18.0734 33.7182 16.297 34.2269C14.5206 34.7356 12.6216 34.5064 11.0071 33.5885C10.8041 33.4776 10.6099 33.3502 10.4264 33.2076L28.9036 24.4457C28.43 21.8823 27.3169 19.4904 25.6737 17.5054C24.0306 15.5205 21.9142 14.0111 19.533 13.1259ZM18.3452 21.2892L7.52287 26.1599H7.3117C7.48699 24.906 7.96932 23.7188 8.71318 22.7104C9.45704 21.702 10.4379 20.9056 11.5632 20.3964C12.6885 19.8872 13.921 19.6819 15.1446 19.8001C16.3682 19.9182 17.5424 20.3558 18.5564 21.0715L18.3452 21.2892Z" fill="#1A1A1A"></path><path d="M59.4964 27.983V27.1667C59.4995 24.9529 59.0279 22.7657 58.1152 20.7617C57.2026 18.7578 55.8715 16.9866 54.2173 15.5748C53.4517 14.935 52.6298 14.3702 51.7624 13.8878C50.0244 12.9523 48.122 12.386 46.1678 12.2224C44.2136 12.0588 42.2474 12.3013 40.3858 12.9354C37.6433 13.8764 35.2336 15.6355 33.462 17.9898C31.6905 20.3441 30.6368 23.1876 30.4345 26.1599V26.4048C30.4345 26.4048 30.4345 26.7041 30.4345 26.8946V27.085C30.4341 28.4369 30.6117 29.7825 30.9624 31.085C31.5777 33.352 32.6986 35.4393 34.2355 37.1803C35.2292 38.2989 36.3764 39.2615 37.6406 40.0374C38.1789 40.3511 38.7341 40.6327 39.3035 40.881C41.0923 41.654 43.0127 42.0518 44.9523 42.051H45.6386H46.3513C47.4137 41.9387 48.4431 41.606 49.3776 41.0729C50.312 40.5398 51.1322 39.8173 51.7888 38.949V41.6701H59.5756L59.4964 27.983ZM41.9695 20.3095C42.8049 19.9468 43.7027 19.7617 44.6091 19.7653C46.4011 19.7655 48.1278 20.459 49.4475 21.7086C50.7673 22.9582 51.5839 24.673 51.736 26.5136C51.736 26.7041 51.736 26.9218 51.736 27.1395C51.736 27.3572 51.736 27.5476 51.736 27.7381C51.591 29.4797 50.8505 31.1115 49.6467 32.3425C48.4429 33.5735 46.854 34.3237 45.1634 34.4592H44.6091C43.6897 34.4526 42.7809 34.2556 41.9367 33.8799C41.0926 33.5043 40.3302 32.9575 39.695 32.2722C39.0598 31.5869 38.5646 30.7771 38.2389 29.8906C37.9132 29.0042 37.7636 28.0594 37.799 27.1123C37.7666 25.6809 38.1451 24.2716 38.8871 23.0613C39.6291 21.851 40.7015 20.8936 41.9695 20.3095Z" fill="#1A1A1A"></path><path d="M119.917 13.2891H112.156V41.67H119.917V13.2891Z" fill="#1A1A1A"></path><path d="M116.037 10.7857C118.792 10.7857 121.025 8.48318 121.025 5.64286C121.025 2.80254 118.792 0.5 116.037 0.5C113.281 0.5 111.048 2.80254 111.048 5.64286C111.048 8.48318 113.281 10.7857 116.037 10.7857Z" fill="#1A1A1A"></path></g></g><defs><clipPath id="clip0_299_14444"><rect width="182" height="56" fill="white" transform="translate(0 0.5)"></rect></clipPath><clipPath id="clip1_299_14444"><rect width="174.583" height="54.4218" fill="white" transform="translate(0 0.5)"></rect></clipPath></defs></svg> 